# xmcd
#
# Track frame offsets:
#      150
#      13929
#      28036
#      39840
#      51214
#      62784
#      77846
#      97148
#      107745
#      122367
# 
# Disc length: 1844 seconds
#
# Revision: 2
# Processed by: cddbd v1.4PL0 Copyright (c) Steve Scherf et al.
#
# Submitted via: FreeRIP 1.21
#
DISCID=7d07320a
DTITLE=Merle Haggard - Big City
DYEAR=1981
DGENRE=country
TTITLE0=Merle Haggard-Big City-'81-Big City
TTITLE1=Merle Haggard-My Favorite Memory-'81-Big City
TTITLE2=Merle Haggard-Good Old American Guest-'81-Big City
TTITLE3=Merle Haggard-I Think I'm Gonna Live Forever-'81-Big City
TTITLE4=Merle Haggard-This Song Is Mine-'81-Big City
TTITLE5=Merle Haggard-Stop The World-'81-Big City
TTITLE6=Merle Haggard-Are The Good Times Really Over-'81-Big City
TTITLE7=Merle Haggard-Texas Fiddle Song-'81-Big City
TTITLE8=Merle Haggard-You Don't Have Very Far To Go-'81- Big City
TTITLE9=Merle Haggard-I Always Get Lucky With You-'81-Big City
EXTD=
EXTT0=
EXTT1=
EXTT2=
EXTT3=
EXTT4=
EXTT5=
EXTT6=
EXTT7=
EXTT8=
EXTT9=
PLAYORDER=
